<?xml version="1.0" encoding="UTF-8" standalone="no"?><!DOCTYPE svg PUBLIC "-//W3C//DTD SVG 1.1//EN" "http://www.w3.org/Graphics/SVG/1.1/DTD/svg11.dtd"><svg width="100%" height="100%" viewBox="0 0 4267 4267" version="1.1" xmlns="http://www.w3.org/2000/svg" xmlns:xlink="http://www.w3.org/1999/xlink" xml:space="preserve" xmlns:serif="http://www.serif.com/" style="fill-rule:evenodd;clip-rule:evenodd;stroke-linejoin:round;stroke-miterlimit:2;"><path id="path1" d="M1084.55,373.44l2091.67,-0c217.784,13.909 430.015,130.56 548.313,316.219c105.898,155.451 133.189,346.374 122.521,530.051l-0,1941.23c-12.806,185.787 -96.193,370.089 -237.053,494.146c-141.456,127.56 -331.673,202.649 -522.985,185.02c-681.681,-1.461 -1364.03,2.923 -2045.29,-2.191c-282.215,-41.585 -525.291,-261.65 -593.428,-538.675c-47.689,-196.934 -17.954,-402.048 -24.891,-602.865c6.283,-565.045 -1.908,-1130.33 6.222,-1695.24c42.931,-320.161 317.473,-606.225 646.593,-623.527l8.334,-4.166Z" style="fill:#5194c4;fill-rule:nonzero;"/><path d="M818.093,3386.21c-0,33.508 26.212,44.967 58.435,52.085c23.541,4.861 44.077,7.986 44.077,27.084c-0,13.542 -10.853,25.174 -34.394,25.174c-20.869,0 -33.391,-10.07 -35.395,-25.001l-36.062,0c-0,32.814 26.713,53.648 69.12,53.648c44.411,-0 72.793,-21.529 72.793,-58.682c0,-34.723 -25.711,-45.314 -58.435,-51.391c-20.035,-3.819 -44.577,-7.465 -44.577,-26.736c-0,-15.452 12.855,-24.306 31.722,-24.306c24.041,-0 31.721,14.236 32.89,27.084l33.392,-0c-0,-32.467 -23.541,-55.731 -65.281,-55.731c-35.729,0 -68.285,17.014 -68.285,56.772Z" style="fill:#f8f9fa;fill-rule:nonzero;"/><path d="M1218.94,3332.57l-37.231,0l-29.051,139.934l-1.502,0l-36.397,-139.934l-35.061,0l-36.23,139.934l-1.669,0l-29.051,-139.934l-37.398,0l45.579,183.511l38.901,0l36.731,-135.419l1.168,-0l36.731,135.419l38.734,0l45.746,-183.511Z" style="fill:#f8f9fa;fill-rule:nonzero;"/><path d="M1248.76,3287.77c-0,12.674 10.017,21.702 22.038,21.702c12.021,0 21.871,-9.028 21.871,-21.702c0,-12.674 -9.85,-21.875 -21.871,-21.875c-12.021,-0 -22.038,9.201 -22.038,21.875Zm3.506,228.304l37.064,0l0,-183.511l-37.064,0l-0,183.511Z" style="fill:#f8f9fa;fill-rule:nonzero;"/><path d="M1426.4,3518.68c40.738,-0 68.62,-31.772 68.62,-86.287l-0,-16.32c-0,-54.862 -28.216,-85.94 -67.785,-85.94c-23.708,0 -41.739,11.806 -51.423,29.341l-1.335,0l-0,-26.91l-36.063,0l-0,244.45l37.064,0l0,-86.46l1.336,0c9.35,16.841 26.713,28.126 49.586,28.126Zm-8.515,-31.772c-26.379,0 -42.741,-21.875 -42.741,-56.598l0,-13.022c0,-33.855 16.195,-55.73 42.074,-55.73c25.21,-0 40.236,20.313 40.236,55.904l0,12.848c0,36.98 -16.028,56.598 -39.569,56.598Z" style="fill:#f8f9fa;fill-rule:nonzero;"/><rect x="1536.42" y="3266.59" width="37.065" height="249.485" style="fill:#f8f9fa;fill-rule:nonzero;"/><rect x="1611.39" y="3401.66" width="105.183" height="34.376" style="fill:#f8f9fa;fill-rule:nonzero;"/><path d="M1753.13,3516.08l36.897,0l0,-113.544c0,-26.563 15.36,-39.758 34.56,-39.758c20.536,0 34.227,12.848 34.227,40.105l-0,113.197l36.063,0l-0,-113.197c-0,-24.306 12.855,-40.105 34.894,-40.105c21.537,0 33.892,14.584 33.892,37.848l-0,115.454l37.064,0l0,-125.176c0,-36.98 -21.537,-61.113 -58.435,-61.113c-29.217,0 -47.582,14.931 -53.76,30.557l-1.502,-0c-6.512,-18.577 -22.874,-30.557 -50.088,-30.557c-25.043,0 -40.403,14.41 -45.579,27.431l-1.837,0l0,-24.653l-36.396,0l-0,183.511Z" style="fill:#f8f9fa;fill-rule:nonzero;"/><path d="M2039.8,3431.7c-0,51.391 28.215,87.503 76.132,87.503c41.072,-0 66.616,-21.876 71.291,-58.509l-35.061,0c-2.505,14.237 -13.524,26.563 -34.059,26.563c-25.211,0 -41.072,-21.528 -41.072,-55.557l-0,-15.625c-0,-33.855 15.193,-54.689 40.905,-54.689c17.53,0 30.219,13.542 33.224,28.994l35.061,-0c-1.336,-32.119 -27.381,-60.939 -70.289,-60.939c-47.75,0 -76.132,35.591 -76.132,85.766l-0,16.493Z" style="fill:#f8f9fa;fill-rule:nonzero;"/><path d="M2312.11,3518.68c40.738,-0 68.619,-31.772 68.619,-86.287l0,-16.32c0,-54.862 -28.215,-85.94 -67.784,-85.94c-23.708,0 -41.74,11.806 -51.423,29.341l-1.336,0l0,-26.91l-36.063,0l0,244.45l37.065,0l-0,-86.46l1.336,0c9.349,16.841 26.713,28.126 49.586,28.126Zm-8.515,-31.772c-26.379,0 -42.741,-21.875 -42.741,-56.598l0,-13.022c0,-33.855 16.195,-55.73 42.073,-55.73c25.211,-0 40.237,20.313 40.237,55.904l0,12.848c0,36.98 -16.028,56.598 -39.569,56.598Z" style="fill:#f8f9fa;fill-rule:nonzero;"/><rect x="2410.61" y="3401.66" width="105.183" height="34.376" style="fill:#f8f9fa;fill-rule:nonzero;"/><path d="M2545.85,3386.21c0,33.508 26.213,44.967 58.435,52.085c23.541,4.861 44.077,7.986 44.077,27.084c0,13.542 -10.852,25.174 -34.393,25.174c-20.87,0 -33.392,-10.07 -35.395,-25.001l-36.063,0c0,32.814 26.713,53.648 69.12,53.648c44.411,-0 72.794,-21.529 72.794,-58.682c-0,-34.723 -25.712,-45.314 -58.435,-51.391c-20.035,-3.819 -44.578,-7.465 -44.578,-26.736c0,-15.452 12.856,-24.306 31.722,-24.306c24.042,-0 31.722,14.236 32.891,27.084l33.391,-0c0,-32.467 -23.541,-55.731 -65.28,-55.731c-35.729,0 -68.286,17.014 -68.286,56.772Z" style="fill:#f8f9fa;fill-rule:nonzero;"/><path d="M2791.78,3519.2c43.576,-0 66.616,-26.216 71.959,-55.905l-35.228,0c-4.508,15.799 -17.364,25.522 -36.23,25.522c-25.21,-0 -41.238,-20.487 -41.238,-51.39l-0,-4.341l114.699,0l0,-17.535c0,-51.737 -28.382,-86.113 -75.464,-86.113c-46.414,0 -75.799,33.161 -75.799,84.377l0,18.577c0,54.341 30.052,86.808 77.301,86.808Zm-40.737,-113.024l-0,-0.347c-0,-26.043 15.527,-46.529 39.402,-46.529c23.541,-0 39.068,20.486 39.068,46.529l-0,0.347l-78.47,-0Z" style="fill:#f8f9fa;fill-rule:nonzero;"/><path d="M2905.14,3516.08l37.566,0l-0,-108.683c-0,-24.653 10.017,-43.751 39.736,-43.751c6.177,0 12.688,0.521 15.861,1.389l-0,-34.028c-3.506,-0.695 -7.68,-1.042 -12.522,-1.042c-24.543,-0 -37.733,15.278 -42.24,26.737l-1.336,-0l-0,-24.133l-37.065,0l0,183.511Z" style="fill:#f8f9fa;fill-rule:nonzero;"/><path d="M3077.45,3516.08l41.405,0l62.108,-183.511l-37.899,0l-44.077,142.365l-1.336,-0l-40.57,-142.365l-39.402,0l59.771,183.511Z" style="fill:#f8f9fa;fill-rule:nonzero;"/><path d="M3273.57,3519.2c43.576,-0 66.616,-26.216 71.959,-55.905l-35.228,0c-4.508,15.799 -17.364,25.522 -36.23,25.522c-25.211,-0 -41.238,-20.487 -41.238,-51.39l-0,-4.341l114.699,0l0,-17.535c0,-51.737 -28.383,-86.113 -75.464,-86.113c-46.415,0 -75.799,33.161 -75.799,84.377l-0,18.577c-0,54.341 30.052,86.808 77.301,86.808Zm-40.737,-113.024l-0,-0.347c-0,-26.043 15.527,-46.529 39.401,-46.529c23.541,-0 39.068,20.486 39.068,46.529l0,0.347l-78.469,-0Z" style="fill:#f8f9fa;fill-rule:nonzero;"/><path d="M3386.93,3516.08l37.566,0l-0,-108.683c-0,-24.653 10.017,-43.751 39.735,-43.751c6.178,0 12.689,0.521 15.861,1.389l0,-34.028c-3.506,-0.695 -7.68,-1.042 -12.521,-1.042c-24.543,-0 -37.733,15.278 -42.241,26.737l-1.335,-0l-0,-24.133l-37.065,0l0,183.511Z" style="fill:#f8f9fa;fill-rule:nonzero;"/><path id="path2" d="M1145.83,683.333c72.102,-5.774 133.594,43.03 201.192,62.061c88.013,32.282 175.911,72.028 264.117,99.277c95.926,-29.869 186.641,-80.418 287.233,-96.907c117.362,-32.713 241.093,-22.751 361.436,-20.614c135.018,14.836 263.96,60.513 386.022,118.683c118.734,-34.033 231.855,-88.481 349.084,-128.823c45.697,-12.27 104.217,-58.513 146.091,-19.204c36.024,60.616 -11.946,130.551 -25.258,192.443c-25.592,71.55 -57.339,143.459 -107.417,201.418c29.657,56.883 75.534,105.74 96.937,168.07c90.96,201.13 64.056,452.542 -75.593,625.382c-60.858,78.538 -141.402,137.244 -229.677,181.548c-4.634,34.35 70.908,23.911 95.833,50c32.836,21.771 61.72,59.809 104.167,37.5c171.395,-43.192 351.125,82.17 395.818,247.867c24.831,82.521 21.329,182.89 -41.651,247.966c19.48,144.078 59.553,285.292 79.166,429.167c-34.14,-10.54 -106.586,25.75 -105.607,-27.723c-23.131,-114.37 -46.262,-228.741 -69.393,-343.111c-64.711,11.884 -130.421,7.719 -195.833,8.334c21.47,120.875 52.367,240.759 66.667,362.5c-34.118,-10.544 -106.643,25.761 -105.547,-27.735c-5.973,-40.806 -21.217,-80.694 -19.453,-122.265c-18.998,23.066 -21.555,79.402 -39.333,113.832c-2.319,58.605 -68.407,29.354 -106.758,36.168c-23.615,-14.328 18.838,-76.066 22.618,-108.749c68.11,-193.836 87.114,-404.273 65.139,-607.918c-16.572,-73.222 -61.66,-142.404 -136.087,-165.96c-50.282,-32.878 -60.276,24.112 -84.715,55.501c-61.458,89.367 -175.923,125.898 -280.717,114.626c-241.962,-1.243 -484.589,2.484 -726.136,-1.861c-94.522,-22.187 -180.003,-86.618 -218.178,-177.306c-124.066,7.001 -197.034,142.467 -183.333,256.569c-5.403,172.541 4.439,347.966 64.526,511.473c13.257,41.653 32.928,81.253 43.807,123.625c-36.477,-10.058 -101.042,22.016 -116.492,-19.582c-19.894,-40.397 -25.824,-86.135 -46.008,-126.252c-9.722,48.611 -19.444,97.223 -29.167,145.834c-38.41,-5.524 -113.28,21.949 -87.5,-41.667c21.422,-106.792 38.211,-214.788 62.5,-320.833c-68.091,-1.364 -137.811,5.64 -204.166,-12.5c-22.891,125.135 -47.127,250.018 -70.834,375c-30.373,-10.628 -115.789,25.966 -95.699,-27.956c21.231,-134.306 55.473,-267.192 74.866,-401.211c-89.451,-91.82 -64.563,-239.1 -2.095,-338.315c72.954,-130.041 241.1,-199.88 383.021,-148.087c33.945,-4.155 60.781,-48.411 98.241,-59.431c34.13,-9.327 111.409,-23.348 47.693,-55.32c-73.005,-34.589 -135.556,-89.478 -189.36,-148.847c-17.354,-22.598 -47.309,-59.95 -63.167,-93.315c-115.544,-186.859 -97.339,-433.265 10.468,-619.18c11.331,-36.949 62.431,-63.406 56.873,-101.557c-25.937,-27.635 -45.282,-74.526 -61.245,-98.448c-33.636,-75.917 -56.365,-160.306 -80.429,-240.404c-5.412,-28.107 10.507,-49.262 33.333,-63.763Z" style="fill:#033257;fill-rule:nonzero;"/><path id="path3" d="M1433.33,1120.83l41.667,8.334l150,45.833l116.667,33.333l104.166,41.667l54.167,33.333l41.667,33.334l37.5,37.5l37.5,58.333l20.833,50l4.167,20.833l-0,50l-12.5,58.334l-33.334,79.166l-37.5,58.334l-41.666,45.833l25,37.5l54.166,79.167l45.834,66.666l25,33.334l-0,8.333l-379.167,-0l-100,-16.667l-79.167,-29.166l-66.666,-37.5l-54.167,-41.667l-33.333,-29.167l-37.5,-45.833l-41.667,-62.5l-29.167,-70.833l-12.5,-45.834l-8.333,-62.5l0,-87.5l8.333,-58.333l16.667,-62.5l29.167,-66.667l41.666,-62.5l45.834,-50l45.833,-37.5l20.833,-12.5Z" style="fill:#fafbfb;fill-rule:nonzero;"/><path id="path4" d="M2820.83,1120.83l20.834,4.167l41.666,29.167l41.667,37.5l41.667,54.166l29.166,50l25,62.5l12.5,50l8.334,50l-0,108.334l-16.667,87.5l-25,62.5l-29.167,54.166l-37.5,50l-33.333,37.5l-58.333,45.834l-66.667,41.666l-58.333,25l-50,16.667l-75,12.5l-387.5,0l8.333,-20.833l45.833,-66.667l54.167,-79.167l37.5,-54.166l-8.333,-16.667l-29.167,-29.167l-41.667,-62.5l-29.166,-66.666l-16.667,-62.5l0,-50l12.5,-50l33.333,-62.5l37.5,-45.834l45.834,-41.666l54.166,-33.334l62.5,-29.166l100,-33.334l104.167,-29.166l145.833,-45.834Z" style="fill:#fafbfb;fill-rule:nonzero;"/><path id="path5" d="M1708.33,2604.17l850,-0l25,20.833l8.334,25l-0,266.667l-12.5,25l-20.834,16.666l-12.5,4.167l-829.166,0l-29.167,-16.667l-12.5,-20.833l0,-287.5l12.5,-20.833l20.833,-12.5Z" style="fill:#f8f9fa;fill-rule:nonzero;"/><path id="path6" d="M1712.5,2508.33l837.5,0l50,12.5l37.5,20.834l29.167,33.333l16.666,37.5l4.167,45.833l0,258.334l-12.5,50l-20.833,33.333l-29.167,29.167l-50,20.833l-20.833,4.167l-837.5,-0l-50,-12.5l-41.667,-25l-25,-29.167l-16.667,-37.5l-4.166,-16.667l-0,-312.5l16.666,-45.833l33.334,-37.5l41.666,-20.833l41.667,-8.334Zm-4.167,95.834l-20.833,12.5l-12.5,20.833l0,287.5l16.667,25l25,12.5l829.166,0l25,-12.5l16.667,-20.833l4.167,-12.5l-0,-266.667l-12.5,-29.167l-20.834,-16.666l-850,-0Z" style="fill:#033258;fill-rule:nonzero;"/><path id="path7" d="M2820.83,1120.83l20.834,4.167l41.666,29.167l41.667,37.5l41.667,54.166l29.166,50l25,62.5l12.5,50l8.334,50l-0,108.334l-16.667,87.5l-25,62.5l-29.167,54.166l-37.5,50l-33.333,37.5l-58.333,45.834l-66.667,41.666l-58.333,25l-50,16.667l-75,12.5l-387.5,0l8.333,-20.833l45.833,-66.667l54.167,-79.167l41.667,-58.333l29.166,16.667l37.5,25l62.5,29.166l50,12.5l29.167,4.167l70.833,0l66.667,-12.5l54.167,-20.833l50,-29.167l54.166,-45.833l41.667,-58.334l25,-50l16.667,-62.5l4.166,-33.333l0,-41.667l-8.333,-58.333l-20.833,-62.5l-37.5,-62.5l-16.667,-16.667l0,-8.333l-8.333,0l-20.834,-20.833l-29.166,-25l-58.334,-33.334l-58.333,-20.833l-58.333,-8.333l-0,-12.5l141.666,-41.667l50,-16.667Z" style="fill:#8ebdda;fill-rule:nonzero;"/><path id="path8" d="M1433.64,1122.76l41.667,8.333l120.833,37.5l8.334,8.333l37.5,12.5l-12.5,4.167l-50,8.333l-62.5,20.834l-50,29.166l-41.667,33.334l-41.667,45.833l-37.5,66.667l-20.833,70.833l-4.167,29.167l0,50l8.334,58.333l25,66.667l33.333,54.166l45.833,50l50,37.5l62.5,29.167l58.334,16.667l29.166,4.166l83.334,0l70.833,-16.666l66.667,-29.167l45.833,-33.333l16.667,-4.167l45.833,62.5l33.333,50l45.834,66.667l25,33.333l-0,8.333l-379.167,0l-100,-16.666l-79.167,-29.167l-66.666,-37.5l-54.167,-41.667l-33.333,-29.166l-37.5,-45.834l-41.667,-62.5l-29.167,-70.833l-12.5,-45.833l-8.333,-62.5l0,-87.5l8.333,-58.334l16.667,-62.5l29.167,-66.666l41.666,-62.5l45.834,-50l45.833,-37.5l20.833,-12.5Z" style="fill:#8fbeda;fill-rule:nonzero;"/><ellipse cx="1663.92" cy="1529.1" rx="239.18" ry="235.417" style="fill:#033257;"/><ellipse cx="2601.57" cy="1519.83" rx="239.18" ry="235.417" style="fill:#033257;"/><path id="path11" d="M1575,2095.83l91.667,12.5l954.166,0l66.667,-8.333l-8.333,37.5l-20.834,41.667l-37.5,41.666l-37.5,25l-45.833,16.667l-33.333,4.167l-745.834,-0l-58.333,-12.5l-45.833,-25l-29.167,-25l-29.167,-45.834l-20.833,-54.166l0,-8.334Z" style="fill:#3382b4;fill-rule:nonzero;"/><path id="path12" d="M2087.5,825l145.833,0l108.334,16.667l62.5,16.666l112.5,37.5l8.333,4.167l0,8.333l-66.667,33.334l-75,45.833l-54.166,41.667l-58.334,50l-41.666,37.5l-41.667,41.666l-29.167,33.334l-20.833,25l-16.667,-8.334l-50,-58.333l-45.833,-45.833l0,-8.334l-16.667,-8.333l-29.166,-25l-0,-8.333l-16.667,-8.334l-12.5,-8.333l-0,-8.333l-16.667,-8.334l-75,-50l-62.5,-37.5l-50,-29.166l16.667,-12.5l45.833,-16.667l66.667,-16.667l41.667,-12.5l116.666,-16.666l54.167,-4.167Z" style="fill:#3886b7;fill-rule:nonzero;"/><path id="path13" d="M1229.17,808.333l45.833,12.5l79.167,33.334l83.333,29.166l50,20.834l79.167,29.166l112.5,45.834l66.666,33.333l58.334,33.333l66.666,45.834l58.334,45.833l45.833,45.833l0,8.334l8.333,-0l45.834,62.5l8.333,20.833l-33.333,-25l-41.667,-33.333l-54.167,-33.334l-70.833,-33.333l-83.333,-29.167l-41.667,-12.5l-75,-20.833l-87.5,-29.167l-66.667,-16.666l-41.666,-16.667l-41.667,-12.5l-58.333,-29.167l-41.667,-33.333l-33.333,-37.5l-16.667,-37.5l-20.833,-66.667Z" style="fill:#3c89b9;fill-rule:nonzero;"/><path id="path14" d="M3029.17,808.333l4.166,16.667l-20.833,62.5l-20.833,37.5l-29.167,33.333l-58.333,37.5l-79.167,33.334l-120.833,37.5l-37.5,8.333l-37.5,12.5l-70.834,20.833l-50,12.5l-33.333,12.5l-83.333,33.334l-66.667,37.5l-50,37.5l-45.833,41.666l-0,-12.5l29.166,-45.833l50,-54.167l37.5,-37.5l70.834,-54.166l87.5,-54.167l66.666,-33.333l62.5,-29.167l62.5,-25l112.5,-45.833l62.5,-20.834l45.834,-20.833l70.833,-25l41.667,-16.667Z" style="fill:#3a87b8;fill-rule:nonzero;"/><path id="path15" d="M3050,2250l58.333,0l41.667,12.5l41.667,20.833l50,45.834l29.166,33.333l25,50l12.5,41.667l0,75l-20.833,41.666l-33.333,25l-41.667,16.667l-33.333,4.167l-120.834,-0l-4.166,-195.834l-12.5,-87.5l-20.834,-75l29.167,-8.333Z" style="fill:#3483b5;fill-rule:nonzero;"/><path id="path16" d="M1166.67,2250l54.166,0l25,8.333l-12.5,37.5l-16.666,70.834l-4.167,37.5l-4.167,208.333l-145.833,0l-54.167,-16.667l-33.333,-29.166l-16.667,-37.5l0,-79.167l20.834,-62.5l33.333,-50l37.5,-37.5l45.833,-29.167l45.834,-16.666l25,-4.167Z" style="fill:#6a96bd;fill-rule:nonzero;"/><path d="M1916.02,2697.89c48.235,-0.089 87.469,39.851 87.56,89.134c0.09,49.282 -38.997,89.366 -87.233,89.454c-48.235,0.089 -87.469,-39.851 -87.559,-89.134c-0.091,-49.283 38.996,-89.366 87.232,-89.454Z" style="fill:#033257;"/><path d="M2368.88,2720.86c37.184,-1.639 68.732,27.875 70.406,65.866c1.674,37.991 -27.155,70.166 -64.338,71.805c-37.184,1.639 -68.732,-27.875 -70.406,-65.866c-1.674,-37.992 27.155,-70.166 64.338,-71.805Z" style="fill:#033257;"/><g><path d="M2141.03,1628.18l106.179,154.849l-106.179,154.848l-106.179,-154.848l106.179,-154.849Z" style="fill:#6a96bd;"/><path d="M2246.6,1784.03l-99.214,146.764l3.551,-295.93l95.663,149.166Z" style="fill:#3382b4;"/></g><ellipse id="Linke-Pupille" serif:id="Linke Pupille" cx="1727.74" cy="1477.43" rx="66.694" ry="63.61" style="fill:#fff;"/><ellipse id="Rechte-Pupille" serif:id="Rechte Pupille" cx="2659.65" cy="1468.05" rx="66.694" ry="63.61" style="fill:#fff;"/></svg>