<?xml version="1.0" encoding="UTF-8" standalone="no"?>
<!DOCTYPE svg PUBLIC "-//W3C//DTD SVG 1.1//EN" "http://www.w3.org/Graphics/SVG/1.1/DTD/svg11.dtd">
<svg width="100%" height="100%" viewBox="0 0 1024 1024" version="1.1" xmlns="http://www.w3.org/2000/svg" xmlns:xlink="http://www.w3.org/1999/xlink" xml:space="preserve" xmlns:serif="http://www.serif.com/" style="fill-rule:evenodd;clip-rule:evenodd;stroke-linejoin:round;stroke-miterlimit:2;">
    <g id="path1" transform="matrix(1,0,0,1,0.290749,-1.37445)">
        <path d="M260,91L762,91C814.268,94.338 865.204,122.334 893.595,166.893C919.011,204.201 925.56,250.022 923,294.105L923,760C919.927,804.589 899.914,848.821 866.107,878.595C832.158,909.21 786.506,927.231 740.591,923C576.988,922.649 413.224,923.701 249.721,922.474C181.989,912.494 123.651,859.678 107.298,793.192C95.853,745.928 102.989,696.701 101.324,648.505C102.832,512.894 100.866,377.226 102.818,241.646C113.121,164.808 179.011,96.152 258,92L260,91Z" style="fill:rgb(81,148,196);fill-rule:nonzero;"/>
    </g>
    <path id="path2" d="M275,164C292.305,162.614 307.062,174.327 323.286,178.895C344.409,186.642 365.505,196.181 386.674,202.721C409.696,195.553 431.468,183.421 455.61,179.463C483.777,171.612 513.472,174.003 542.355,174.516C574.759,178.077 605.705,189.039 635,203C663.496,194.832 690.645,181.765 718.78,172.082C729.747,169.138 743.792,158.039 753.842,167.473C762.488,182.021 750.975,198.806 747.78,213.66C741.638,230.832 734.019,248.09 722,262C729.118,275.652 740.128,287.378 745.265,302.337C767.095,350.608 760.638,410.947 727.122,452.429C712.517,471.278 693.186,485.367 672,496C670.888,504.244 689.018,501.739 695,508C702.881,513.225 709.813,522.354 720,517C761.135,506.634 804.27,536.721 814.996,576.488C820.956,596.293 820.115,620.382 805,636C809.675,670.579 819.293,704.47 824,739C815.806,736.471 798.419,745.18 798.654,732.346C793.103,704.898 787.551,677.449 782,650C766.469,652.852 750.699,651.853 735,652C740.153,681.01 747.568,709.782 751,739C742.812,736.469 725.406,745.183 725.669,732.344C724.235,722.55 720.577,712.977 721,703C716.441,708.536 715.827,722.057 711.56,730.32C711.004,744.385 695.142,737.365 685.938,739C680.271,735.561 690.459,720.744 691.367,712.9C707.713,666.38 712.274,615.875 707,567C703.023,549.427 692.202,532.823 674.339,527.169C662.271,519.279 659.873,532.957 654.007,540.49C639.258,561.938 611.786,570.705 586.635,568C528.564,567.702 470.334,568.596 412.363,567.553C389.677,562.228 369.162,546.765 360,525C330.224,526.68 312.712,559.192 316,586.576C314.703,627.986 317.066,670.088 331.486,709.33C334.668,719.327 339.389,728.831 342,739C333.246,736.586 317.75,744.284 314.042,734.3C309.267,724.605 307.844,713.628 303,704C300.667,715.667 298.333,727.333 296,739C286.782,737.674 268.813,744.268 275,729C280.141,703.37 284.17,677.451 290,652C273.658,651.673 256.925,653.354 241,649C235.506,679.032 229.69,709.004 224,739C216.71,736.449 196.211,745.232 201.032,732.291C206.128,700.057 214.346,668.165 219,636C197.532,613.963 203.505,578.616 218.497,554.804C236.006,523.595 276.361,506.833 310.422,519.264C318.569,518.266 325.01,507.645 334,505C342.191,502.761 360.738,499.397 345.446,491.723C327.925,483.422 312.913,470.248 300,456C295.835,450.577 288.646,441.612 284.84,433.604C257.109,388.758 261.479,329.621 287.352,285.001C290.072,276.133 302.336,269.784 301.002,260.628C294.777,253.995 290.134,242.741 286.303,237C278.23,218.78 272.775,198.527 267,179.303C265.701,172.557 269.522,167.48 275,164Z" style="fill:rgb(3,50,87);fill-rule:nonzero;"/>
    <g id="path3" transform="matrix(1,0,0,1,344,269)">
        <path d="M0,0L10,2L46,13L74,21L99,31L112,39L122,47L131,56L140,70L145,82L146,87L146,99L143,113L135,132L126,146L116,157L122,166L135,185L146,201L152,209L152,211L61,211L37,207L18,200L2,191L-11,181L-19,174L-28,163L-38,148L-45,131L-48,120L-50,105L-50,84L-48,70L-44,55L-37,39L-27,24L-16,12L-5,3L0,0Z" style="fill:rgb(250,251,251);fill-rule:nonzero;"/>
    </g>
    <g id="path4" transform="matrix(1,0,0,1,677,269)">
        <path d="M0,0L5,1L15,8L25,17L35,30L42,42L48,57L51,69L53,81L53,107L49,128L43,143L36,156L27,168L19,177L5,188L-11,198L-25,204L-37,208L-55,211L-148,211L-146,206L-135,190L-122,171L-113,158L-115,154L-122,147L-132,132L-139,116L-143,101L-143,89L-140,77L-132,62L-123,51L-112,41L-99,33L-84,26L-60,18L-35,11L0,0Z" style="fill:rgb(250,251,251);fill-rule:nonzero;"/>
    </g>
    <g id="path5" transform="matrix(1,0,0,1,410,625)">
        <path d="M0,0L204,0L210,5L212,11L212,75L209,81L204,85L201,86L2,86L-5,82L-8,77L-8,8L-5,3L0,0Z" style="fill:rgb(248,249,250);fill-rule:nonzero;"/>
    </g>
    <g id="path6" transform="matrix(1,0,0,1,411,602)">
        <path d="M0,0L201,0L213,3L222,8L229,16L233,25L234,36L234,98L231,110L226,118L219,125L207,130L202,131L1,131L-11,128L-21,122L-27,115L-31,106L-32,102L-32,27L-28,16L-20,7L-10,2L0,0ZM-1,23L-6,26L-9,31L-9,100L-5,106L1,109L200,109L206,106L210,101L211,98L211,34L208,27L203,23L-1,23Z" style="fill:rgb(3,50,88);fill-rule:nonzero;"/>
    </g>
    <g id="path7" transform="matrix(1,0,0,1,677,269)">
        <path d="M0,0L5,1L15,8L25,17L35,30L42,42L48,57L51,69L53,81L53,107L49,128L43,143L36,156L27,168L19,177L5,188L-11,198L-25,204L-37,208L-55,211L-148,211L-146,206L-135,190L-122,171L-112,157L-105,161L-96,167L-81,174L-69,177L-62,178L-45,178L-29,175L-16,170L-4,163L9,152L19,138L25,126L29,111L30,103L30,93L28,79L23,64L14,49L10,45L10,43L8,43L3,38L-4,32L-18,24L-32,19L-46,17L-46,14L-12,4L0,0Z" style="fill:rgb(142,189,218);fill-rule:nonzero;"/>
    </g>
    <g id="path8" transform="matrix(1,0,0,1,344.075,269.463)">
        <path d="M0,0L10,2L39,11L41,13L50,16L47,17L35,19L20,24L8,31L-2,39L-12,50L-21,66L-26,83L-27,90L-27,102L-25,116L-19,132L-11,145L0,157L12,166L27,173L41,177L48,178L68,178L85,174L101,167L112,159L116,158L127,173L135,185L146,201L152,209L152,211L61,211L37,207L18,200L2,191L-11,181L-19,174L-28,163L-38,148L-45,131L-48,120L-50,105L-50,84L-48,70L-44,55L-37,39L-27,24L-16,12L-5,3L0,0Z" style="fill:rgb(143,190,218);fill-rule:nonzero;"/>
    </g>
    <g transform="matrix(1.05352,0,0,1.04749,-38.3324,-27.6156)">
        <ellipse cx="415.438" cy="376.709" rx="54.487" ry="53.938" style="fill:rgb(3,50,87);"/>
    </g>
    <g transform="matrix(1.05352,0,0,1.04749,186.703,-29.8403)">
        <ellipse cx="415.438" cy="376.709" rx="54.487" ry="53.938" style="fill:rgb(3,50,87);"/>
    </g>
    <g id="path11" transform="matrix(1,0,0,1,378,503)">
        <path d="M0,0L22,3L251,3L267,1L265,10L260,20L251,30L242,36L231,40L223,41L44,41L30,38L19,32L12,26L5,15L0,2L0,0Z" style="fill:rgb(51,130,180);fill-rule:nonzero;"/>
    </g>
    <g id="path12" transform="matrix(1,0,0,1,501,198)">
        <path d="M0,0L35,0L61,4L76,8L103,17L105,18L105,20L89,28L71,39L58,49L44,61L34,70L24,80L17,88L12,94L8,92L-4,78L-15,67L-15,65L-19,63L-26,57L-26,55L-30,53L-33,51L-33,49L-37,47L-55,35L-70,26L-82,19L-78,16L-67,12L-51,8L-41,5L-13,1L0,0Z" style="fill:rgb(56,134,183);fill-rule:nonzero;"/>
    </g>
    <g id="path13" transform="matrix(1,0,0,1,295,194)">
        <path d="M0,0L11,3L30,11L50,18L62,23L81,30L108,41L124,49L138,57L154,68L168,79L179,90L179,92L181,92L192,107L194,112L186,106L176,98L163,90L146,82L126,75L116,72L98,67L77,60L61,56L51,52L41,49L27,42L17,34L9,25L5,16L0,0Z" style="fill:rgb(60,137,185);fill-rule:nonzero;"/>
    </g>
    <g id="path14" transform="matrix(1,0,0,1,727,194)">
        <path d="M0,0L1,4L-4,19L-9,28L-16,36L-30,45L-49,53L-78,62L-87,64L-96,67L-113,72L-125,75L-133,78L-153,86L-169,95L-181,104L-192,114L-192,111L-185,100L-173,87L-164,78L-147,65L-126,52L-110,44L-95,37L-80,31L-53,20L-38,15L-27,10L-10,4L0,0Z" style="fill:rgb(58,135,184);fill-rule:nonzero;"/>
    </g>
    <g id="path15" transform="matrix(1,0,0,1,732,540)">
        <path d="M0,0L14,0L24,3L34,8L46,19L53,27L59,39L62,49L62,67L57,77L49,83L39,87L31,88L2,88L1,41L-2,20L-7,2L0,0Z" style="fill:rgb(52,131,181);fill-rule:nonzero;"/>
    </g>
    <g id="path16" transform="matrix(1,0,0,1,280,540)">
        <path d="M0,0L13,0L19,2L16,11L12,28L11,37L10,87L-25,87L-38,83L-46,76L-50,67L-50,48L-45,33L-37,21L-28,12L-17,5L-6,1L0,0Z" style="fill:rgb(106,150,189);fill-rule:nonzero;"/>
    </g>
    <g transform="matrix(1.60341,-0.00294291,0.00294291,1.60341,-363.575,-391.303)">
        <ellipse cx="512.35" cy="662.172" rx="13.081" ry="13.366" style="fill:rgb(3,50,87);"/>
    </g>
    <g transform="matrix(1.23604,-0.0544766,0.0544766,1.23604,-100.101,-121.035)">
        <ellipse cx="512.35" cy="662.172" rx="13.081" ry="13.366" style="fill:rgb(3,50,87);"/>
    </g>
    <g transform="matrix(0.911348,0,0,0.923836,46.6681,36.5814)">
        <g transform="matrix(0.871413,0,0,0.869471,43.5926,45.5645)">
            <path d="M538.242,388.532L570.33,434.799L538.242,481.066L506.154,434.799L538.242,388.532Z" style="fill:rgb(106,150,189);"/>
        </g>
        <g transform="matrix(-0.0134512,1.10578,-0.316703,-0.00385249,670.816,219.843)">
            <path d="M185.916,403.815L220.678,484.837L151.154,484.837L185.916,403.815Z" style="fill:rgb(51,130,180);"/>
        </g>
    </g>
    <g id="text1">
        <g id="Linke-Pupille" serif:id="Linke Pupille" transform="matrix(1.08479,0,0,1.04116,-35.555,-15.7091)">
            <ellipse cx="415.024" cy="355.654" rx="14.756" ry="14.663" style="fill:white;"/>
        </g>
        <g id="Rechte-Pupille" serif:id="Rechte Pupille" transform="matrix(1.08479,0,0,1.04116,188.101,-17.9602)">
            <ellipse cx="415.024" cy="355.654" rx="14.756" ry="14.663" style="fill:white;"/>
        </g>
        <g transform="matrix(1.0798,0,0,1.12286,513.321,837.405)">
            <text x="-282.621px" y="0px" style="font-family:'SFCompactDisplay-Medium', 'SF Compact Display', sans-serif;font-weight:500;font-size:72px;fill:rgb(248,249,250);">s<tspan x="-247.078px -192.938px " y="0px 0px ">wi</tspan>pl-mcp-ser<tspan x="183.938px 218.18px " y="0px 0px ">ve</tspan>r</text>
        </g>
    </g>
</svg>
